# xmcd
#
# Track frame offsets:
#	150
#	15890
#	34102
#	47485
#	63362
#
# Disc length: 1083 seconds
#
# Revision: 1
# Processed by: cddbd v1.5.2PL0 Copyright (c) Steve Scherf et al.
# Submitted via: audiograbber 1.83.01
#
DISCID=2f043905
DTITLE=Sexx - Freaky Freaky Remix [CDM)
DYEAR=1995
DGENRE=R&B
TTITLE0=Freaky Freaky (Rah Rah Rap Mix)
TTITLE1=Freaky Freaky (G.D. Knees Mix)
TTITLE2=Freaky Freaky (DJ Dub Mix)
TTITLE3=Freaky Freaky (Drumapella Rap Mix)
TTITLE4=Freaky Freaky (Instrumental)
EXTD=
EXTT0=
EXTT1=
EXTT2=
EXTT3=
EXTT4=
PLAYORDER=
